<?xml version="1.0" encoding="UTF-8"?>
<svg xmlns="http://www.w3.org/2000/svg" xmlns:xlink="http://www.w3.org/1999/xlink" width="13px" height="15px" viewBox="0 0 13 14" version="1.1">
<g id="surface1">
<path style=" stroke:none;fill-rule:nonzero;fill:#fff;fill-opacity:1;" d="M 3.714844 0 C 4.226562 0 4.644531 0.390625 4.644531 0.875 L 4.644531 1.75 L 8.355469 1.75 L 8.355469 0.875 C 8.355469 0.390625 8.773438 0 9.285156 0 C 9.800781 0 10.214844 0.390625 10.214844 0.875 L 10.214844 1.75 L 11.605469 1.75 C 12.375 1.75 13 2.335938 13 3.0625 L 13 4.375 L 0 4.375 L 0 3.0625 C 0 2.335938 0.625 1.75 1.394531 1.75 L 2.785156 1.75 L 2.785156 0.875 C 2.785156 0.390625 3.199219 0 3.714844 0 Z M 0 5.25 L 13 5.25 L 13 12.6875 C 13 13.414062 12.375 14 11.605469 14 L 1.394531 14 C 0.625 14 0 13.414062 0 12.6875 Z M 1.855469 7.4375 L 1.855469 8.3125 C 1.855469 8.554688 2.066406 8.75 2.320312 8.75 L 3.25 8.75 C 3.503906 8.75 3.714844 8.554688 3.714844 8.3125 L 3.714844 7.4375 C 3.714844 7.195312 3.503906 7 3.25 7 L 2.320312 7 C 2.066406 7 1.855469 7.195312 1.855469 7.4375 Z M 5.570312 7.4375 L 5.570312 8.3125 C 5.570312 8.554688 5.78125 8.75 6.035156 8.75 L 6.964844 8.75 C 7.21875 8.75 7.429688 8.554688 7.429688 8.3125 L 7.429688 7.4375 C 7.429688 7.195312 7.21875 7 6.964844 7 L 6.035156 7 C 5.78125 7 5.570312 7.195312 5.570312 7.4375 Z M 9.75 7 C 9.496094 7 9.285156 7.195312 9.285156 7.4375 L 9.285156 8.3125 C 9.285156 8.554688 9.496094 8.75 9.75 8.75 L 10.679688 8.75 C 10.933594 8.75 11.144531 8.554688 11.144531 8.3125 L 11.144531 7.4375 C 11.144531 7.195312 10.933594 7 10.679688 7 Z M 1.855469 10.9375 L 1.855469 11.8125 C 1.855469 12.054688 2.066406 12.25 2.320312 12.25 L 3.25 12.25 C 3.503906 12.25 3.714844 12.054688 3.714844 11.8125 L 3.714844 10.9375 C 3.714844 10.695312 3.503906 10.5 3.25 10.5 L 2.320312 10.5 C 2.066406 10.5 1.855469 10.695312 1.855469 10.9375 Z M 6.035156 10.5 C 5.78125 10.5 5.570312 10.695312 5.570312 10.9375 L 5.570312 11.8125 C 5.570312 12.054688 5.78125 12.25 6.035156 12.25 L 6.964844 12.25 C 7.21875 12.25 7.429688 12.054688 7.429688 11.8125 L 7.429688 10.9375 C 7.429688 10.695312 7.21875 10.5 6.964844 10.5 Z M 9.285156 10.9375 L 9.285156 11.8125 C 9.285156 12.054688 9.496094 12.25 9.75 12.25 L 10.679688 12.25 C 10.933594 12.25 11.144531 12.054688 11.144531 11.8125 L 11.144531 10.9375 C 11.144531 10.695312 10.933594 10.5 10.679688 10.5 L 9.75 10.5 C 9.496094 10.5 9.285156 10.695312 9.285156 10.9375 Z M 9.285156 10.9375 "/>
</g>
</svg>
