<?xml version="1.0" encoding="UTF-8"?>
<svg xmlns="http://www.w3.org/2000/svg" xmlns:xlink="http://www.w3.org/1999/xlink" width="12px" height="14px" viewBox="0 0 12 13" version="1.1">
<g id="surface1">
<path style=" stroke:none;fill-rule:nonzero;fill:#9a9a9a;fill-opacity:1;" d="M 3.429688 0.433594 C 3.902344 0.433594 4.289062 0.773438 4.289062 1.191406 L 4.289062 1.949219 L 7.710938 1.949219 L 7.710938 1.191406 C 7.710938 0.773438 8.097656 0.433594 8.570312 0.433594 C 9.046875 0.433594 9.429688 0.773438 9.429688 1.191406 L 9.429688 1.949219 L 10.710938 1.949219 C 11.421875 1.949219 12 2.457031 12 3.085938 L 12 4.226562 L 0 4.226562 L 0 3.085938 C 0 2.457031 0.578125 1.949219 1.289062 1.949219 L 2.570312 1.949219 L 2.570312 1.191406 C 2.570312 0.773438 2.953125 0.433594 3.429688 0.433594 Z M 0 4.984375 L 12 4.984375 L 12 11.429688 C 12 12.058594 11.421875 12.566406 10.710938 12.566406 L 1.289062 12.566406 C 0.578125 12.566406 0 12.058594 0 11.429688 Z M 1.710938 6.878906 L 1.710938 7.636719 C 1.710938 7.847656 1.90625 8.015625 2.140625 8.015625 L 3 8.015625 C 3.234375 8.015625 3.429688 7.847656 3.429688 7.636719 L 3.429688 6.878906 C 3.429688 6.667969 3.234375 6.5 3 6.5 L 2.140625 6.5 C 1.90625 6.5 1.710938 6.667969 1.710938 6.878906 Z M 5.140625 6.878906 L 5.140625 7.636719 C 5.140625 7.847656 5.335938 8.015625 5.570312 8.015625 L 6.429688 8.015625 C 6.664062 8.015625 6.859375 7.847656 6.859375 7.636719 L 6.859375 6.878906 C 6.859375 6.667969 6.664062 6.5 6.429688 6.5 L 5.570312 6.5 C 5.335938 6.5 5.140625 6.667969 5.140625 6.878906 Z M 9 6.5 C 8.765625 6.5 8.570312 6.667969 8.570312 6.878906 L 8.570312 7.636719 C 8.570312 7.847656 8.765625 8.015625 9 8.015625 L 9.859375 8.015625 C 10.09375 8.015625 10.289062 7.847656 10.289062 7.636719 L 10.289062 6.878906 C 10.289062 6.667969 10.09375 6.5 9.859375 6.5 Z M 1.710938 9.914062 L 1.710938 10.671875 C 1.710938 10.878906 1.90625 11.050781 2.140625 11.050781 L 3 11.050781 C 3.234375 11.050781 3.429688 10.878906 3.429688 10.671875 L 3.429688 9.914062 C 3.429688 9.703125 3.234375 9.535156 3 9.535156 L 2.140625 9.535156 C 1.90625 9.535156 1.710938 9.703125 1.710938 9.914062 Z M 5.570312 9.535156 C 5.335938 9.535156 5.140625 9.703125 5.140625 9.914062 L 5.140625 10.671875 C 5.140625 10.878906 5.335938 11.050781 5.570312 11.050781 L 6.429688 11.050781 C 6.664062 11.050781 6.859375 10.878906 6.859375 10.671875 L 6.859375 9.914062 C 6.859375 9.703125 6.664062 9.535156 6.429688 9.535156 Z M 8.570312 9.914062 L 8.570312 10.671875 C 8.570312 10.878906 8.765625 11.050781 9 11.050781 L 9.859375 11.050781 C 10.09375 11.050781 10.289062 10.878906 10.289062 10.671875 L 10.289062 9.914062 C 10.289062 9.703125 10.09375 9.535156 9.859375 9.535156 L 9 9.535156 C 8.765625 9.535156 8.570312 9.703125 8.570312 9.914062 Z M 8.570312 9.914062 "/>
</g>
</svg>
